<svg width="872" height="127" viewBox="0 0 872 127" fill="none" xmlns="http://www.w3.org/2000/svg">
<path d="M0.0556641 124.6H58.3307C85.9807 124.6 104.181 113.4 104.181 91C104.181 74.2 95.4307 65.975 81.2557 60.55C90.0057 55.65 97.3557 47.95 97.3557 34.125C97.3557 25.375 94.5557 18.55 88.9557 12.95C81.9557 5.95 70.9307 2.09999 56.9307 2.09999H0.0556641V124.6ZM26.3057 51.625V25.725H52.9057C64.2807 25.725 70.5807 30.275 70.5807 38.325C70.5807 47.775 63.0557 51.625 51.1557 51.625H26.3057ZM26.3057 100.975V74.025H57.4557C71.2807 74.025 77.4057 79.1 77.4057 87.325C77.4057 96.775 70.2307 100.975 58.3307 100.975H26.3057Z" fill="#EEEEEE"/>
<path d="M115.85 124.6H143.325L154.525 97.125H206.325L217.525 124.6H245.7L193.2 1.22499H168.35L115.85 124.6ZM164.15 73.325L180.425 33.6L196.7 73.325H164.15Z" fill="#EEEEEE"/>
<path d="M264.606 124.6H352.631V100.1H291.556V2.09999H264.606V124.6Z" fill="#EEEEEE"/>
<path d="M362.456 124.6H389.931L401.131 97.125H452.931L464.131 124.6H492.306L439.806 1.22499H414.956L362.456 124.6ZM410.756 73.325L427.031 33.6L443.306 73.325H410.756Z" fill="#EEEEEE"/>
<path d="M511.213 124.6H537.813V46.725L597.138 124.6H620.063V2.09999H593.463V77.525L536.063 2.09999H511.213V124.6Z" fill="#EEEEEE"/>
<path d="M706.87 126.7C730.495 126.7 744.495 119.35 757.095 105.875L739.945 87.5C730.32 96.25 721.745 101.85 707.745 101.85C686.745 101.85 672.22 84.35 672.22 63.35C672.22 42 687.095 24.85 707.745 24.85C721.745 24.85 729.795 29.925 739.245 38.5L755.345 19.95C743.97 8.74999 731.02 0 707.92 0C670.295 0 644.045 28.525 644.045 63.35C644.045 98.875 670.82 126.7 706.87 126.7Z" fill="#EEEEEE"/>
<path d="M778.669 124.6H871.944V100.625H805.444V74.9H863.194V50.925H805.444V26.075H871.069V2.09999H778.669V124.6Z" fill="#EEEEEE"/>
</svg>
